<svg width="650" height="722" viewBox="0 0 650 722" fill="none" xmlns="http://www.w3.org/2000/svg">
<path d="M525 25.6666H125C69.7717 25.6666 25 70.4383 25 125.667V177.139C25 206.99 38.3357 235.28 61.3617 254.276L170.456 344.28C193.483 363.277 206.818 391.567 206.818 421.417V629.8C206.818 683.957 267.977 715.517 312.117 684.133L415.147 610.877C432.733 598.373 443.183 578.127 443.183 556.543V421.417C443.183 391.567 456.517 363.277 479.543 344.28L588.637 254.276C611.663 235.28 625 206.99 625 177.139V125.667C625 70.4383 580.23 25.6666 525 25.6666Z" stroke="black" stroke-width="50"/>
</svg>
